<svg xmlns="http://www.w3.org/2000/svg" width="900" height="620" font-family="system-ui, sans-serif">

  <!-- Background -->
  <rect width="900" height="620" fill="#f8f8f8"/>

  <!-- Header bar -->
  <rect width="900" height="56" fill="#2c2c2c"/>
  <text x="24" y="34" fill="white" font-size="18" font-weight="600">spaced-cal</text>

  <!-- Nav: month/week toggle -->
  <rect x="680" y="14" width="72" height="28" rx="4" fill="#444"/>
  <text x="716" y="32" fill="#aaa" font-size="13" text-anchor="middle">Month</text>
  <rect x="756" y="14" width="72" height="28" rx="4" fill="#7c6af7"/>
  <text x="792" y="32" fill="white" font-size="13" text-anchor="middle">Week</text>

  <!-- Week navigation -->
  <text x="450" y="94" fill="#333" font-size="15" font-weight="500" text-anchor="middle">April 2026</text>
  <text x="230" y="94" fill="#666" font-size="22" text-anchor="middle" style="cursor:pointer">‹</text>
  <text x="670" y="94" fill="#666" font-size="22" text-anchor="middle" style="cursor:pointer">›</text>
  <text x="820" y="94" fill="#7c6af7" font-size="13" text-anchor="middle" style="cursor:pointer">Today</text>

  <!-- Day column headers -->
  <!-- Col width: (900-60)/7 = 120, start x=60 -->

  <!-- Mon 20 (today) -->
  <rect x="60" y="108" width="120" height="48" fill="#7c6af7" rx="4"/>
  <text x="120" y="127" fill="white" font-size="11" text-anchor="middle">MON</text>
  <text x="120" y="147" fill="white" font-size="20" font-weight="700" text-anchor="middle">20</text>

  <!-- Tue 21 -->
  <rect x="180" y="108" width="120" height="48" fill="white" rx="4"/>
  <text x="240" y="127" fill="#888" font-size="11" text-anchor="middle">TUE</text>
  <text x="240" y="147" fill="#333" font-size="20" font-weight="400" text-anchor="middle">21</text>

  <!-- Wed 22 -->
  <rect x="300" y="108" width="120" height="48" fill="white" rx="4"/>
  <text x="360" y="127" fill="#888" font-size="11" text-anchor="middle">WED</text>
  <text x="360" y="147" fill="#333" font-size="20" font-weight="400" text-anchor="middle">22</text>

  <!-- Thu 23 -->
  <rect x="420" y="108" width="120" height="48" fill="white" rx="4"/>
  <text x="480" y="127" fill="#888" font-size="11" text-anchor="middle">THU</text>
  <text x="480" y="147" fill="#333" font-size="20" font-weight="400" text-anchor="middle">23</text>

  <!-- Fri 24 -->
  <rect x="540" y="108" width="120" height="48" fill="white" rx="4"/>
  <text x="600" y="127" fill="#888" font-size="11" text-anchor="middle">FRI</text>
  <text x="600" y="147" fill="#333" font-size="20" font-weight="400" text-anchor="middle">24</text>

  <!-- Sat 25 -->
  <rect x="660" y="108" width="120" height="48" fill="white" rx="4"/>
  <text x="720" y="127" fill="#888" font-size="11" text-anchor="middle">SAT</text>
  <text x="720" y="147" fill="#333" font-size="20" font-weight="400" text-anchor="middle">25</text>

  <!-- Sun 26 -->
  <rect x="780" y="108" width="120" height="48" fill="white" rx="4"/>
  <text x="840" y="127" fill="#888" font-size="11" text-anchor="middle">SUN</text>
  <text x="840" y="147" fill="#333" font-size="20" font-weight="400" text-anchor="middle">26</text>

  <!-- Column separator lines -->
  <line x1="60" y1="156" x2="900" y2="156" stroke="#e0e0e0" stroke-width="1"/>

  <!-- Day columns background (alternating) -->
  <rect x="60"  y="156" width="120" height="440" fill="#faf9ff"/>
  <rect x="180" y="156" width="120" height="440" fill="white"/>
  <rect x="300" y="156" width="120" height="440" fill="white"/>
  <rect x="420" y="156" width="120" height="440" fill="white"/>
  <rect x="540" y="156" width="120" height="440" fill="white"/>
  <rect x="660" y="156" width="120" height="440" fill="white"/>
  <rect x="780" y="156" width="120" height="440" fill="white"/>

  <!-- Vertical dividers -->
  <line x1="180" y1="108" x2="180" y2="596" stroke="#e8e8e8" stroke-width="1"/>
  <line x1="300" y1="108" x2="300" y2="596" stroke="#e8e8e8" stroke-width="1"/>
  <line x1="420" y1="108" x2="420" y2="596" stroke="#e8e8e8" stroke-width="1"/>
  <line x1="540" y1="108" x2="540" y2="596" stroke="#e8e8e8" stroke-width="1"/>
  <line x1="660" y1="108" x2="660" y2="596" stroke="#e8e8e8" stroke-width="1"/>
  <line x1="780" y1="108" x2="780" y2="596" stroke="#e8e8e8" stroke-width="1"/>

  <!-- ── MON 20 events ── -->
  <!-- Event 1: pending -->
  <rect x="68" y="164" width="104" height="52" rx="5" fill="#7c6af7"/>
  <text x="78" y="180" fill="white" font-size="11" font-weight="600">Review Ch.3</text>
  <text x="78" y="194" fill="#d4ceff" font-size="10">Fibonacci · day 8</text>
  <!-- complete button -->
  <rect x="78" y="202" width="56" height="18" rx="3" fill="white" fill-opacity="0.2"/>
  <text x="106" y="214" fill="white" font-size="10" text-anchor="middle">✓ Complete</text>

  <!-- Event 2: pending -->
  <rect x="68" y="224" width="104" height="52" rx="5" fill="#f7a23a"/>
  <text x="78" y="240" fill="white" font-size="11" font-weight="600">Vocab set B</text>
  <text x="78" y="254" fill="#fff3dd" font-size="10">Doubling · day 4</text>
  <rect x="78" y="262" width="56" height="18" rx="3" fill="white" fill-opacity="0.2"/>
  <text x="106" y="274" fill="white" font-size="10" text-anchor="middle">✓ Complete</text>

  <!-- Event 3: completed -->
  <rect x="68" y="284" width="104" height="36" rx="5" fill="#e8e8e8"/>
  <text x="78" y="300" fill="#aaa" font-size="11" font-weight="600" text-decoration="line-through">Grammar drill</text>
  <text x="78" y="313" fill="#bbb" font-size="10">Completed</text>

  <!-- ── TUE 21 events ── -->
  <rect x="188" y="164" width="104" height="52" rx="5" fill="#4caf8a"/>
  <text x="198" y="180" fill="white" font-size="11" font-weight="600">Kanji set 1</text>
  <text x="198" y="194" fill="#c8f0e2" font-size="10">SM-2 · day 13</text>
  <rect x="198" y="202" width="56" height="18" rx="3" fill="white" fill-opacity="0.2"/>
  <text x="226" y="214" fill="white" font-size="10" text-anchor="middle">✓ Complete</text>

  <!-- ── WED 22 events ── -->
  <rect x="308" y="164" width="104" height="52" rx="5" fill="#7c6af7"/>
  <text x="318" y="180" fill="white" font-size="11" font-weight="600">Review Ch.3</text>
  <text x="318" y="194" fill="#d4ceff" font-size="10">Fibonacci · day 13</text>
  <rect x="318" y="202" width="56" height="18" rx="3" fill="white" fill-opacity="0.2"/>
  <text x="346" y="214" fill="white" font-size="10" text-anchor="middle">✓ Complete</text>

  <!-- ── FRI 24 events ── -->
  <rect x="548" y="164" width="104" height="52" rx="5" fill="#f7a23a"/>
  <text x="558" y="180" fill="white" font-size="11" font-weight="600">Vocab set B</text>
  <text x="558" y="194" fill="#fff3dd" font-size="10">Doubling · day 8</text>
  <rect x="558" y="202" width="56" height="18" rx="3" fill="white" fill-opacity="0.2"/>
  <text x="586" y="214" fill="white" font-size="10" text-anchor="middle">✓ Complete</text>

  <!-- ── SAT 25 events ── -->
  <rect x="668" y="164" width="104" height="52" rx="5" fill="#4caf8a"/>
  <text x="678" y="180" fill="white" font-size="11" font-weight="600">Kanji set 1</text>
  <text x="678" y="194" fill="#c8f0e2" font-size="10">SM-2 · day 21</text>
  <rect x="678" y="202" width="56" height="18" rx="3" fill="white" fill-opacity="0.2"/>
  <text x="706" y="214" fill="white" font-size="10" text-anchor="middle">✓ Complete</text>

  <!-- Bottom bar: undo -->
  <rect width="900" height="40" y="580" fill="#2c2c2c"/>
  <rect x="16" y="590" width="64" height="22" rx="4" fill="#444"/>
  <text x="48" y="605" fill="#ccc" font-size="12" text-anchor="middle">↩ Undo</text>
  <text x="170" y="605" fill="#666" font-size="11">Last: completed "Grammar drill" (Mon 20)</text>

  <!-- Left gutter label -->
  <rect x="0" y="108" width="60" height="488" fill="#f0f0f0"/>
  <text x="30" y="596" fill="#bbb" font-size="10" text-anchor="middle">+</text>

  <!-- Bottom border -->
  <rect width="900" height="1" y="579" fill="#444"/>
  <rect width="900" height="1" y="107" fill="#ddd"/>

</svg>
